# xmcd
#
# Track frame offsets:
# 150
# 12755
# 31220
# 46787
# 62720
# 83185
# 96885
# 113930
# 126025
# 148935
# 160277
# 179457
# 192930
# 209152
#
# Disc length: 2981 seconds
#
#
# Revision: 0
# Processed by: cddbd v1.5.1PL0 Copyright (c) Steve Scherf et al.
# Submitted via: FreeRIP 2.53 
#
DISCID=c50ba30e
DTITLE=Renaud Patigny - Tritons Dance
DYEAR=1997
DGENRE=Boogie Woogie
TTITLE0=Tritons Dance
TTITLE1=South Station Blues
TTITLE2=Cow Cow Blues
TTITLE3=It's A Shame
TTITLE4=Groovy Slow Blues
TTITLE5=Reyers Special
TTITLE6=Tossin' And Turnin'
TTITLE7=State Street Special
TTITLE8=Mister Freddie Blues
TTITLE9=Oulatu
TTITLE10=When Wine Flowed Like Wine
TTITLE11=Teralgone
TTITLE12=Gobbe's Blues
TTITLE13=Ragin' Boogie
EXTD=www.88boogie.com
EXTT0=
EXTT1=
EXTT2=
EXTT3=
EXTT4=
EXTT5=
EXTT6=
EXTT7=
EXTT8=
EXTT9=
EXTT10=
EXTT11=
EXTT12=
EXTT13=
PLAYORDER=
